<svg width="23" height="29" viewBox="0 0 23 29" fill="none" xmlns="http://www.w3.org/2000/svg">
<path d="M1.44653 14.1283H9.71537" stroke="#C05621" stroke-linecap="round" stroke-linejoin="round"/>
<path d="M3.28552 14.1283V20.434C3.28552 21.7901 4.31388 22.8893 5.58243 22.8893C6.85097 22.8893 7.87933 21.7901 7.87933 20.434V14.1283" stroke="#C05621" stroke-linecap="round" stroke-linejoin="round"/>
<path d="M5.55469 22.8968V27.6314" stroke="#C05621" stroke-linecap="round" stroke-linejoin="round"/>
<path d="M4.20166 27.667H6.95794" stroke="#C05621" stroke-linecap="round" stroke-linejoin="round"/>
<path d="M14.7163 9.29833C16.8741 9.29833 18.6232 7.42849 18.6232 5.12196C18.6232 2.81543 16.8741 0.945602 14.7163 0.945602C12.5586 0.945602 10.8094 2.81543 10.8094 5.12196C10.8094 7.42849 12.5586 9.29833 14.7163 9.29833Z" stroke="#C05621" stroke-linecap="round" stroke-linejoin="round"/>
<path d="M10.8094 10.6091C11.9481 9.76164 13.3099 9.29837 14.7164 9.29837C16.5297 9.29837 18.2688 10.0684 19.551 11.439C20.833 12.8097 21.5535 14.6686 21.5535 16.607V19.7393H18.6232L17.6466 28.0919H11.7862L10.9715 21.1255" stroke="#C05621" stroke-linecap="round" stroke-linejoin="round"/>
</svg>
