<svg width="36" height="36" viewBox="0 0 36 36" fill="none" xmlns="http://www.w3.org/2000/svg">
<circle cx="18" cy="12" r="4" stroke="#C05621" stroke-linecap="round"/>
<path d="M20.4354 9.625C20.7568 9.06833 21.2361 8.61946 21.8126 8.33516C22.3891 8.05087 23.0369 7.9439 23.6742 8.0278C24.3115 8.11171 24.9096 8.3827 25.3929 8.80652C25.8761 9.23034 26.2229 9.78795 26.3893 10.4088C26.5556 11.0297 26.5341 11.686 26.3275 12.2947C26.1209 12.9034 25.7384 13.4371 25.2285 13.8284C24.7185 14.2197 24.104 14.451 23.4626 14.493C22.8211 14.5351 22.1817 14.386 21.625 14.0646" stroke="#C05621"/>
<path d="M15.5646 9.625C15.2432 9.06833 14.7639 8.61946 14.1874 8.33516C13.6109 8.05087 12.9631 7.9439 12.3258 8.0278C11.6885 8.11171 11.0904 8.3827 10.6071 8.80652C10.1239 9.23034 9.77711 9.78795 9.61074 10.4088C9.44437 11.0297 9.46586 11.686 9.67248 12.2947C9.8791 12.9034 10.2616 13.4371 10.7715 13.8284C11.2815 14.2197 11.896 14.451 12.5374 14.493C13.1789 14.5351 13.8183 14.386 14.375 14.0646" stroke="#C05621"/>
<path d="M18 18.75C24.5461 18.75 25.8981 24.4164 26.1773 26.7569C26.2427 27.3053 25.8023 27.75 25.25 27.75H10.75C10.1977 27.75 9.75726 27.3053 9.82268 26.7569C10.1019 24.4164 11.4539 18.75 18 18.75Z" stroke="#C05621" stroke-linecap="round"/>
<path d="M29.0689 23.6631L29.5582 23.5602V23.5602L29.0689 23.6631ZM19.6306 18.8789L19.2614 18.5417L18.6409 19.2213L19.5486 19.3721L19.6306 18.8789ZM25.7719 24.75L25.2916 24.889L25.3961 25.25H25.7719V24.75ZM23.25 17.75C25.0288 17.75 26.2367 18.7031 27.0769 19.9556C27.9258 21.2212 28.3662 22.7518 28.5796 23.766L29.5582 23.5602C29.3342 22.4957 28.8607 20.8198 27.9073 19.3985C26.9452 17.9641 25.4622 16.75 23.25 16.75V17.75ZM19.9999 19.216C20.7892 18.3514 21.834 17.75 23.25 17.75V16.75C21.5061 16.75 20.2061 17.507 19.2614 18.5417L19.9999 19.216ZM19.5486 19.3721C23.1368 19.9684 24.6463 22.6583 25.2916 24.889L26.2522 24.611C25.5578 22.2108 23.8501 19.0732 19.7126 18.3856L19.5486 19.3721ZM28.145 24.25H25.7719V25.25H28.145V24.25ZM28.5796 23.766C28.6294 24.0027 28.4521 24.25 28.145 24.25V25.25C29.0211 25.25 29.752 24.4814 29.5582 23.5602L28.5796 23.766Z" fill="#C05621"/>
<path d="M16.3694 18.8789L16.4514 19.3721L17.3591 19.2213L16.7387 18.5417L16.3694 18.8789ZM6.93113 23.6631L7.42042 23.766H7.42042L6.93113 23.6631ZM10.2281 24.75V25.25H10.6039L10.7084 24.889L10.2281 24.75ZM12.7501 17.75C14.166 17.75 15.2108 18.3514 16.0002 19.216L16.7387 18.5417C15.7939 17.507 14.4939 16.75 12.7501 16.75V17.75ZM7.42042 23.766C7.63381 22.7518 8.07422 21.2212 8.92317 19.9556C9.76334 18.7031 10.9712 17.75 12.7501 17.75V16.75C10.5378 16.75 9.05488 17.9641 8.0927 19.3985C7.1393 20.8198 6.66581 22.4957 6.44184 23.5601L7.42042 23.766ZM7.85504 24.25C7.54792 24.25 7.37063 24.0027 7.42042 23.766L6.44184 23.5601C6.24801 24.4814 6.97892 25.25 7.85504 25.25V24.25ZM10.2281 24.25H7.85504V25.25H10.2281V24.25ZM10.7084 24.889C11.3537 22.6583 12.8633 19.9684 16.4514 19.3721L16.2874 18.3856C12.1499 19.0732 10.4422 22.2108 9.74779 24.611L10.7084 24.889Z" fill="#C05621"/>
</svg>
