<svg width="54" height="50" viewBox="0 0 54 50" fill="none" xmlns="http://www.w3.org/2000/svg">
<path d="M48.2656 47.0413C46.8443 42.9381 44.0528 39.3589 40.2936 36.8197C36.5339 34.2804 32.0006 32.9121 27.3471 32.9121C22.6936 32.9121 18.1603 34.2804 14.4008 36.8197C10.6413 39.3589 7.84975 42.9381 6.42871 47.0413H48.2656Z" stroke="white" stroke-linecap="round" stroke-linejoin="round"/>
<path d="M27.3474 32.9377C35.2588 32.9377 41.6724 26.9993 41.6724 19.6739C41.6724 12.3485 35.2588 6.41016 27.3474 6.41016C19.4359 6.41016 13.0225 12.3485 13.0225 19.6739C13.0225 26.9993 19.4359 32.9377 27.3474 32.9377Z" stroke="white" stroke-linecap="round" stroke-linejoin="round"/>
<path d="M32.025 24.8057C32.025 24.8057 30.8364 26.9712 27.3474 26.9712C23.8585 26.9712 22.6699 24.8057 22.6699 24.8057" stroke="white" stroke-linecap="round" stroke-linejoin="round"/>
<path d="M41.4127 17.1486C41.3805 17.1488 41.3487 17.1489 41.3169 17.1489C37.1529 17.1489 33.4146 15.4621 30.8552 12.7863C28.2959 15.4622 24.5575 17.149 20.3936 17.149C17.9757 17.149 15.7012 16.5802 13.7178 15.5792C15.5813 10.2577 20.9789 6.41016 27.347 6.41016C34.3258 6.41016 40.1389 11.031 41.4127 17.1486Z" stroke="white" stroke-linecap="round" stroke-linejoin="round"/>
</svg>
