<svg width="27" height="25" viewBox="0 0 27 25" fill="none" xmlns="http://www.w3.org/2000/svg">
<path d="M4.20642 3.2431V6.25649" stroke="#C05621" stroke-linecap="round" stroke-linejoin="round"/>
<path d="M13.0055 3.2431V6.25649" stroke="#C05621" stroke-linecap="round" stroke-linejoin="round"/>
<path d="M8.60596 1V4.01339" stroke="#C05621" stroke-linecap="round" stroke-linejoin="round"/>
<path d="M23.9176 9.62935C24.9348 9.62935 25.7594 8.80476 25.7594 7.78757C25.7594 6.77038 24.9348 5.94578 23.9176 5.94578C22.9004 5.94578 22.0758 6.77038 22.0758 7.78757C22.0758 8.80476 22.9004 9.62935 23.9176 9.62935Z" stroke="#C05621" stroke-linecap="round"/>
<path d="M20.7883 15.6462L21.1971 15.8252C24.0495 17.1773 24.8392 18.9224 24.8392 21.3236V21.896C24.8392 22.9612 23.9758 23.8246 22.9107 23.8246H3.04249C2.4126 23.8246 1.81906 23.5151 1.57782 22.9332C1.04258 21.6424 0.422227 19.0498 2.03672 15.8254C4.36972 11.1658 10.1117 10.1425 13.7881 12.0719L13.9632 12.1602" stroke="#C05621" stroke-linecap="round" stroke-linejoin="round"/>
<path d="M19.4711 18.2098C21.2596 16.2456 21.3524 13.4177 19.6784 11.8935C18.0045 10.3694 15.1977 10.7262 13.4092 12.6904C11.7855 14.4736 11.5594 16.9686 12.7839 18.5538C12.9082 18.7147 13.0475 18.8662 13.2018 19.0066" stroke="#C05621" stroke-linecap="round"/>
<path d="M22.6484 9.12675L19.785 11.9902" stroke="#C05621" stroke-linecap="round" stroke-linejoin="round"/>
</svg>
