<svg width="28" height="30" viewBox="0 0 28 30" fill="none" xmlns="http://www.w3.org/2000/svg">
<path d="M10.2072 4.82143L11.1287 2.44286C11.2841 2.04014 11.5575 1.69374 11.9131 1.44903C12.2687 1.20432 12.6899 1.07271 13.1215 1.07143H14.8787C15.3103 1.07271 15.7316 1.20432 16.0871 1.44903C16.4427 1.69374 16.7161 2.04014 16.8715 2.44286L17.793 4.82143L20.9214 6.62143L23.45 6.23572C23.8711 6.17857 24.2997 6.24787 24.6813 6.43483C25.0627 6.62179 25.3801 6.91796 25.5929 7.28572L26.45 8.78572C26.6697 9.15932 26.771 9.59075 26.7404 10.023C26.7097 10.4553 26.5488 10.8682 26.2786 11.2071L24.7143 13.2V16.8L26.3214 18.7929C26.5917 19.1318 26.7526 19.5447 26.7832 19.977C26.8139 20.4093 26.7125 20.8407 26.4929 21.2143L25.6357 22.7143C25.4229 23.082 25.1056 23.3781 24.7242 23.5652C24.3425 23.7521 23.9139 23.8215 23.4929 23.7643L20.9643 23.3786L17.8358 25.1786L16.9144 27.5571C16.759 27.9598 16.4856 28.3063 16.13 28.551C15.7744 28.7957 15.3532 28.9273 14.9215 28.9286H13.1215C12.6899 28.9273 12.2687 28.7957 11.9131 28.551C11.5575 28.3063 11.2841 27.9598 11.1287 27.5571L10.2072 25.1786L7.07868 23.3786L4.55011 23.7643C4.12908 23.8215 3.70055 23.7521 3.31899 23.5652C2.93746 23.3781 2.6201 23.082 2.40725 22.7143L1.55011 21.2143C1.33046 20.8407 1.22928 20.4093 1.25988 19.977C1.29048 19.5447 1.45145 19.1318 1.72153 18.7929L3.28582 16.8V13.2L1.67868 11.2071C1.40859 10.8682 1.24762 10.4553 1.21702 10.023C1.18642 9.59075 1.28761 9.15932 1.50725 8.78572L2.36439 7.28572C2.57724 6.91796 2.8946 6.62179 3.27613 6.43483C3.65769 6.24787 4.08622 6.17857 4.50725 6.23572L7.03582 6.62143L10.2072 4.82143ZM9.71439 15C9.71439 15.8476 9.96575 16.6762 10.4367 17.381C10.9076 18.0858 11.5769 18.6351 12.36 18.9595C13.1432 19.2839 14.0049 19.3687 14.8362 19.2034C15.6675 19.038 16.4312 18.6298 17.0306 18.0305C17.6299 17.4311 18.0381 16.6674 18.2035 15.8361C18.3688 15.0048 18.284 14.1431 17.9596 13.3599C17.6352 12.5768 17.0859 11.9075 16.3811 11.4366C15.6763 10.9656 14.8477 10.7143 14.0001 10.7143C12.8635 10.7143 11.7734 11.1658 10.9697 11.9696C10.1659 12.7733 9.71439 13.8634 9.71439 15Z" stroke="#C05621" stroke-linecap="round" stroke-linejoin="round"/>
</svg>
