<svg width="28" height="22" viewBox="0 0 28 22" fill="none" xmlns="http://www.w3.org/2000/svg">
<path d="M1 19C1 20.1046 1.89394 21 2.99666 21H25.0034C26.106 21 27 20.1046 27 19V14.9319C25.2714 14.4626 23.9998 12.8801 23.9998 11C23.9998 9.11994 25.2714 7.53736 27 7.06806V3C27 1.89544 26.106 1 25.0034 1H2.99666C1.89394 1 1 1.89542 1 3V7.05926C2.7454 7.51732 4.03312 9.10802 4.03312 11C4.03312 12.892 2.7454 14.4827 1 14.9407V19Z" stroke="#C05621" stroke-linecap="round" stroke-linejoin="round"/>
<path d="M9.04102 16L19.041 6" stroke="#C05621" stroke-linecap="round" stroke-linejoin="round"/>
<path d="M10.041 8C10.5933 8 11.041 7.55228 11.041 7C11.041 6.44772 10.5933 6 10.041 6C9.48874 6 9.04102 6.44772 9.04102 7C9.04102 7.55228 9.48874 8 10.041 8Z" stroke="#C05621" stroke-linecap="round" stroke-linejoin="round"/>
<path d="M18.041 16C18.5933 16 19.041 15.5523 19.041 15C19.041 14.4477 18.5933 14 18.041 14C17.4887 14 17.041 14.4477 17.041 15C17.041 15.5523 17.4887 16 18.041 16Z" stroke="#C05621" stroke-linecap="round" stroke-linejoin="round"/>
</svg>
